<?xml version="1.0" standalone="no"?><!DOCTYPE svg PUBLIC "-//W3C//DTD SVG 1.1//EN" "http://www.w3.org/Graphics/SVG/1.1/DTD/svg11.dtd"><svg t="1592902754224" class="icon" viewBox="0 0 1024 1024" version="1.1" xmlns="http://www.w3.org/2000/svg" p-id="23427" xmlns:xlink="http://www.w3.org/1999/xlink" width="200" height="200"><defs><style type="text/css"></style></defs><path d="M354.44 146.4a144.96 144.96 0 0 0-92.6-33.68C179.04 112.72 112 183.08 112 269.76a160.84 160.84 0 0 0 32 96.96C184.44 268 260 188.76 354.44 146.4z" fill="#ffffff" p-id="23428"></path><path d="M511.72 152c-200 0-362.36 169.92-362.36 379.52A387.32 387.32 0 0 0 248 791.24L197.8 844a40.64 40.64 0 0 0-8 42.8 37.52 37.52 0 0 0 34.64 24.24 36.56 36.56 0 0 0 26.52-11.48l53.96-56.76a348 348 0 0 0 414-0.24l54.44 57.08a36.24 36.24 0 0 0 26.2 11.36 37.96 37.96 0 0 0 37.08-38.8 39.6 39.6 0 0 0-10.88-27.44l-50.68-53.12a387.4 387.4 0 0 0 99.04-260C874.08 321.88 712 152 511.72 152z m-2.68 421.44a34.6 34.6 0 0 1-34.52-34.52V322.32a34.6 34.6 0 0 1 34.52-34.32h7.68a34.6 34.6 0 0 1 34.52 34.52v170.84H664a36 36 0 0 1 36 36v8a36 36 0 0 1-36 36h-154.8z" fill="#ffffff" p-id="23429"></path><path d="M764.8 112.72a142 142 0 0 0-90.68 32.96c92.36 41.44 166.4 119 205.96 215.72a157.48 157.48 0 0 0 31.52-94.96c-0.04-84.88-65.76-153.72-146.8-153.72z" fill="#ffffff" p-id="23430"></path></svg>