<?xml version="1.0" standalone="no"?><!DOCTYPE svg PUBLIC "-//W3C//DTD SVG 1.1//EN" "http://www.w3.org/Graphics/SVG/1.1/DTD/svg11.dtd"><svg t="1592903054241" class="icon" viewBox="0 0 1024 1024" version="1.1" xmlns="http://www.w3.org/2000/svg" p-id="50359" xmlns:xlink="http://www.w3.org/1999/xlink" width="200" height="200"><defs><style type="text/css"></style></defs><path d="M1020.342857 566.857143c0-73.142857-40.228571-135.314286-98.742857-157.257143-29.257143-208.457143-128-270.628571-245.028571-314.514286-18.285714-7.314286-98.742857-21.942857-171.885715-21.942857s-138.971429 14.628571-157.257143 21.942857c-117.028571 43.885714-219.428571 106.057143-245.028571 314.514286-58.514286 21.942857-98.742857 84.114286-98.742857 157.257143 0 91.428571 65.828571 168.228571 146.285714 168.228571h10.971429v-325.485714c0-153.6 113.371429-223.085714 197.485714-259.657143 32.914286-10.971429 138.971429-18.285714 149.942857-18.285714 0 0 124.342857 7.314286 157.257143 18.285714 84.114286 32.914286 197.485714 106.057143 197.485714 259.657143v318.171429c-47.542857 91.428571-138.971429 153.6-245.028571 168.228571-7.314286-18.285714-25.6-32.914286-47.542857-32.914286h-109.714286c-29.257143 0-51.2 21.942857-51.2 51.2 0 29.257143 21.942857 51.2 51.2 51.2h109.714286c21.942857 0 43.885714-14.628571 51.2-40.228571 124.342857-14.628571 230.4-87.771429 277.942857-193.828572 65.828571-10.971429 120.685714-80.457143 120.685714-164.571428z" fill="#FFFFFF" p-id="50360"></path><path d="M757.028571 585.142857c3.657143-7.314286 0-18.285714-7.314285-25.6s-18.285714-3.657143-25.6 7.314286c0 0-84.114286 146.285714-208.457143 146.285714-124.342857 0-197.485714-146.285714-197.485714-146.285714-3.657143-10.971429-14.628571-14.628571-25.6-7.314286-10.971429 3.657143-14.628571 14.628571-7.314286 25.6 3.657143 7.314286 84.114286 168.228571 234.057143 168.228572 142.628571-3.657143 234.057143-160.914286 237.714285-168.228572z" fill="#FFFFFF" p-id="50361"></path></svg>