<?xml version="1.0" standalone="no"?><!DOCTYPE svg PUBLIC "-//W3C//DTD SVG 1.1//EN" "http://www.w3.org/Graphics/SVG/1.1/DTD/svg11.dtd"><svg t="1592901618902" class="icon" viewBox="0 0 1130 1024" version="1.1" xmlns="http://www.w3.org/2000/svg" p-id="3691" xmlns:xlink="http://www.w3.org/1999/xlink" width="220.703125" height="200"><defs><style type="text/css"></style></defs><path d="M965.750209 867.195549H164.922392c-23.784145 0-44.007789-16.947983-48.137969-40.304867L0.85452 168.340473C-2.705981 148.116829 6.836161 127.750765 24.638665 117.638943c17.944924-10.111822 40.162448-8.117942 55.828651 5.127121l244.392767 208.075661L524.390542 22.075104c17.944924-27.914325 63.946592-27.914325 81.891516 0L805.812517 330.414465 1050.062865 122.338804c15.666203-13.387483 38.168567-15.238943 55.828651-5.127121 17.944924 10.254242 27.344645 30.620306 23.784145 50.70153l-115.787483 658.977469c-4.130181 23.356885-24.353825 40.304868-48.137969 40.304867z m-774.480112-90.294297h733.463144l85.452016-506.730459-183.436996 148.828929c-10.823922 9.114882-24.781085 12.960223-38.738247 11.108762-13.957163-2.1363-26.205285-9.969402-33.895967-21.647844L565.40751 116.357163 376.558554 408.46064c-7.690682 11.820862-19.938804 19.796384-33.895967 21.647844-14.099583 2.1363-28.056745-2.1363-38.595828-11.108762L105.818081 262.907371l85.452016 513.993881z m774.480112 246.529068H164.922392c-26.917385 0-48.85007-21.220584-48.850069-47.425869S138.005007 928.578581 164.922392 928.578581h800.827817c26.917385 0 48.85007 21.220584 48.850069 47.42587s-21.932684 47.425869-48.850069 47.425869z" fill="#ffffff" p-id="3692"></path></svg>