<?xml version="1.0" standalone="no"?><!DOCTYPE svg PUBLIC "-//W3C//DTD SVG 1.1//EN" "http://www.w3.org/Graphics/SVG/1.1/DTD/svg11.dtd"><svg t="1592901822344" class="icon" viewBox="0 0 1024 1024" version="1.1" xmlns="http://www.w3.org/2000/svg" p-id="6402" xmlns:xlink="http://www.w3.org/1999/xlink" width="200" height="200"><defs><style type="text/css"></style></defs><path d="M343.25 512L230.75 512c-61.875 0-112.5 50.625-112.5 112.5l0 112.5c0 61.875 50.625 112.5 112.5 112.5l112.5 0c61.875 0 112.5-50.625 112.5-112.5l0-112.5C455.75 562.625 405.125 512 343.25 512zM399.5 737c0 30.9375-25.3125 56.25-56.25 56.25L230.75 793.25c-30.9375 0-56.25-25.3125-56.25-56.25l0-112.5c0-30.9375 25.3125-56.25 56.25-56.25l112.5 0c30.9375 0 56.25 25.3125 56.25 56.25L399.5 737zM737 118.25l-112.5 0C562.625 118.25 512 168.875 512 230.75l0 112.5c0 61.875 50.625 112.5 112.5 112.5l112.5 0c61.875 0 112.5-50.625 112.5-112.5L849.5 230.75C849.5 168.875 798.875 118.25 737 118.25zM793.25 343.25c0 30.9375-25.3125 56.25-56.25 56.25l-112.5 0C593.5625 399.5 568.25 374.1875 568.25 343.25L568.25 230.75c0-30.9375 25.3125-56.25 56.25-56.25l112.5 0c30.9375 0 56.25 25.3125 56.25 56.25L793.25 343.25zM737 512l-112.5 0c-61.875 0-112.5 50.625-112.5 112.5l0 112.5c0 61.875 50.625 112.5 112.5 112.5l112.5 0c61.875 0 112.5-50.625 112.5-112.5l0-112.5C849.5 562.625 798.875 512 737 512zM793.25 737c0 30.9375-25.3125 56.25-56.25 56.25l-112.5 0c-30.9375 0-56.25-25.3125-56.25-56.25l0-112.5c0-30.9375 25.3125-56.25 56.25-56.25l112.5 0c30.9375 0 56.25 25.3125 56.25 56.25L793.25 737zM343.25 118.25L230.75 118.25C168.875 118.25 118.25 168.875 118.25 230.75l0 112.5c0 61.875 50.625 112.5 112.5 112.5l112.5 0c61.875 0 112.5-50.625 112.5-112.5L455.75 230.75C455.75 168.875 405.125 118.25 343.25 118.25zM399.5 343.25c0 30.9375-25.3125 56.25-56.25 56.25L230.75 399.5C199.8125 399.5 174.5 374.1875 174.5 343.25L174.5 230.75c0-30.9375 25.3125-56.25 56.25-56.25l112.5 0c30.9375 0 56.25 25.3125 56.25 56.25L399.5 343.25z" fill="#ffffff" p-id="6403"></path></svg>