<?xml version="1.0" standalone="no"?><!DOCTYPE svg PUBLIC "-//W3C//DTD SVG 1.1//EN" "http://www.w3.org/Graphics/SVG/1.1/DTD/svg11.dtd"><svg t="1592902827158" class="icon" viewBox="0 0 1417 1024" version="1.1" xmlns="http://www.w3.org/2000/svg" p-id="28616" xmlns:xlink="http://www.w3.org/1999/xlink" width="276.7578125" height="200"><defs><style type="text/css"></style></defs><path d="M422.990769 144.777846h52.105846V315.864615h-52.14523V144.777846z m0 277.464616h52.105846v171.165538h-52.14523V422.203077z m0 267.972923h52.105846v171.126153h-52.14523v-171.126153z" fill="#FFFFFF" p-id="28617"></path><path d="M1369.796923 330.200615V93.617231c0-28.632615-23.394462-53.169231-52.105846-53.169231H100.233846c-28.041846 0-52.105846 23.867077-52.105846 53.169231v235.913846c74.830769 23.867077 128.275692 94.759385 128.275692 178.648615 0 83.889231-54.114462 154.781538-128.275692 178.609231v234.574769c0 28.632615 23.394462 53.169231 52.105846 53.169231h1217.457231c28.041846 0 52.105846-23.867077 52.105846-53.169231v-233.865846c-74.830769-23.867077-128.315077-94.798769-128.315077-178.648615 0-84.558769 53.484308-154.781538 128.315077-178.648616zM1189.415385 508.849231a241.191385 241.191385 0 0 0 128.275692 214.094769v198.419692H100.233846v-199.08923c78.178462-40.251077 128.275692-122.092308 128.275692-214.09477 0-92.041846-50.766769-173.883077-128.275692-214.094769v-200.467692h1217.457231v200.467692c-78.848 40.211692-128.315077 122.722462-128.315077 214.764308z" fill="#FFFFFF" p-id="28618"></path><path d="M994.264615 539.569231a24.930462 24.930462 0 0 0 24.733539-25.245539v-1.378461a24.930462 24.930462 0 0 0-24.733539-25.206154h-116.932923l128.984616-131.623385c9.334154-9.531077 9.334154-25.915077 0-36.115692l-0.669539-0.708923a25.481846 25.481846 0 0 0-35.446154 0l-126.936615 129.575385-126.976-129.575385a25.481846 25.481846 0 0 0-35.406769 0l-0.669539 0.708923c-9.334154 9.531077-9.334154 25.915077 0 36.115692l128.984616 131.584H691.593846a24.930462 24.930462 0 0 0-24.733538 25.206154v1.417846c0 14.296615 11.342769 25.206154 24.733538 25.206154h125.636923v65.457231h-125.636923a24.930462 24.930462 0 0 0-24.733538 25.206154v1.378461c0 14.336 11.342769 25.206154 24.733538 25.206154h125.636923V716.8c0 14.336 11.342769 25.206154 24.694154 25.206154h1.339077a24.930462 24.930462 0 0 0 24.733538-25.206154v-59.982769h125.636924a24.930462 24.930462 0 0 0 24.694153-25.206154v-1.378462a24.930462 24.930462 0 0 0-24.733538-25.245538h-125.636923v-65.457231h126.306461z" fill="#FFFFFF" p-id="28619"></path></svg>