<?xml version="1.0" standalone="no"?><!DOCTYPE svg PUBLIC "-//W3C//DTD SVG 1.1//EN" "http://www.w3.org/Graphics/SVG/1.1/DTD/svg11.dtd"><svg t="1592902719196" class="icon" viewBox="0 0 1024 1024" version="1.1" xmlns="http://www.w3.org/2000/svg" p-id="22508" xmlns:xlink="http://www.w3.org/1999/xlink" width="200" height="200"><defs><style type="text/css"></style></defs><path d="M106.56 852.33h235.07V474.61l-64.33-44.9L106.56 575z m290.54 0h235.08V476.81l-113.57 95.53-121.51-66z m290.55-420v420h235.07V435L822.37 302.92z m0 0" fill="#FFFFFF" p-id="22509"></path><path d="M145.38 469.87l127.85-106.95 244.24 148.69 289.64-272.78a31.05 31.05 0 0 0 2.79-3.22l48.78 49.33 78.56-221.07-225.36 72.6L765.81 191c-0.71 0.55-1.47 1-2.15 1.65L509.18 432.34 267.41 285.17 104.72 421.25a31.69 31.69 0 1 0 40.67 48.62z m772.07 426H105.23a31.7 31.7 0 1 0 0 63.39h812.22a31.7 31.7 0 0 0 0-63.39z m0 0" fill="#FFFFFF" p-id="22510"></path></svg>