<?xml version="1.0" standalone="no"?><!DOCTYPE svg PUBLIC "-//W3C//DTD SVG 1.1//EN" "http://www.w3.org/Graphics/SVG/1.1/DTD/svg11.dtd"><svg t="1592901946650" class="icon" viewBox="0 0 1116 1024" version="1.1" xmlns="http://www.w3.org/2000/svg" p-id="12288" xmlns:xlink="http://www.w3.org/1999/xlink" width="217.96875" height="200"><defs><style type="text/css"></style></defs><path d="M933.376 428.544V328.192v-7.68-111.616c0-0.512-0.512-1.024-0.512-1.536-1.024-16.384-7.68-32.768-20.48-43.008-5.12-4.096-10.24-9.728-16.896-12.288-17.92-9.216-36.352-17.408-54.272-26.112-40.448-18.432-82.944-31.744-125.44-43.008-2.048-0.512-3.584-1.024-5.632-1.536-4.096-1.024-8.192-2.048-12.8-3.072-5.632-1.536-11.264-2.56-17.408-4.096-9.216-2.048-18.944-4.608-28.672-6.144-4.096-1.024-8.192-2.048-12.288-2.56-7.168-1.024-14.848-1.536-22.016-2.56-9.728-1.536-19.456-2.56-29.184-3.584-5.12-0.512-10.24-1.024-15.872-1.536-9.728-0.512-19.456-1.536-29.184-2.048-4.608-0.512-9.216-1.024-14.336-1.024-5.632 0-11.776 0.512-17.408 0.512s-11.776-0.512-17.408-0.512c-4.608 0-9.216 1.024-14.336 1.024-9.728 0.512-19.456 1.536-29.184 2.048-5.12 0.512-10.752 0.512-15.872 1.536-9.728 1.024-19.456 2.048-29.184 3.584-7.168 1.024-14.848 1.536-22.016 2.56-4.096 1.024-8.192 2.048-12.288 2.56-9.728 2.048-18.944 4.096-28.16 6.144l-17.408 4.096-12.288 3.072c-2.048 0.512-3.584 1.024-5.632 1.536-43.008 11.264-84.992 24.576-125.44 43.008-17.92 8.704-36.352 16.896-54.272 26.112-6.656 2.56-11.264 7.68-16.896 12.288-12.288 10.24-18.944 26.624-20.48 43.008 0 0.512-0.512 1.024-0.512 1.536v219.136c0 5.12 0.512 10.752 2.048 15.872 1.024 48.128 3.072 96.256 8.704 144.384 2.048 22.016 11.264 41.984 18.944 61.44 18.432 44.032 47.616 81.408 76.8 117.76 24.064 28.16 51.712 52.736 79.872 75.776 56.32 45.056 118.272 82.944 182.272 114.176 10.752 4.608 20.992 11.776 32.768 11.776h38.4c11.776 0 22.528-6.656 32.768-11.776 64.512-31.232 125.952-68.608 182.272-114.176 28.16-23.04 55.808-48.128 79.872-75.776 29.696-35.84 58.368-73.728 76.8-117.76 8.192-19.968 16.896-39.936 18.944-61.44 5.632-47.616 7.68-96.256 8.704-144.384 4.096-4.608 4.608-10.24 4.608-15.36z m-523.264 413.696c-56.832-34.816-110.592-75.264-155.648-125.952-27.136-32.768-54.784-67.584-69.12-109.056-3.584-10.752-8.192-20.992-9.728-32.768-5.12-39.936-5.632-80.384-7.168-120.32-2.048-79.872-2.56-159.744-1.024-239.616 14.848-7.168 29.696-13.312 44.032-20.992 7.168-3.584 14.336-6.144 22.016-9.216 19.456-7.68 38.912-14.336 58.368-20.992 27.136-8.192 54.272-15.36 81.92-21.504 14.848-3.072 30.208-7.168 45.568-8.192 20.48-2.56 40.96-5.12 61.44-6.656 10.752-0.512 21.504-0.512 32.256-0.512 10.752 0 21.504 0 32.256 0.512 20.48 1.536 40.96 4.096 61.44 6.656 15.36 1.536 30.72 5.12 45.568 8.192 27.648 6.144 54.784 12.8 81.92 21.504 19.456 6.656 39.424 13.824 58.368 20.992 7.168 3.072 14.848 5.632 22.016 9.216 14.336 7.68 29.184 13.824 44.032 20.992 1.536 79.872 0.512 159.744-1.024 239.616-1.536 40.448-2.048 80.384-7.168 120.32-1.024 11.264-5.632 22.016-9.728 32.768-14.336 41.472-41.984 76.288-69.12 109.056-44.544 50.688-98.816 91.136-155.648 125.952-22.016 13.824-45.568 26.112-68.608 37.888-8.704 4.096-16.896 8.192-25.6 11.776-1.024 0-2.56 0.512-3.584 0.512h-8.192c-1.536 0-2.56 0-3.584-0.512-8.704-3.584-17.408-7.68-26.112-11.776-25.088-11.264-48.128-24.064-70.144-37.888z" fill="#FFFFFF" p-id="12289"></path><path d="M331.776 681.472c-11.264 11.776-20.48 17.92-27.648 18.944-7.168 1.024-14.336-1.536-21.504-8.192-14.336-11.776-12.8-27.136 3.072-46.08 12.8-15.36 23.552-29.184 32.256-42.496 8.704-13.312 16.384-26.624 22.016-39.936 5.632-13.824 9.728-27.648 12.8-43.008 3.072-15.36 5.12-32.256 6.144-51.712h-60.416c-10.752 0-18.432-2.56-22.016-7.68-3.584-5.12-5.632-12.288-5.632-21.504 0-9.216 2.048-15.872 6.656-20.48 4.096-4.096 11.264-6.144 21.504-6.144h61.44V353.792h-49.664c-10.752 0-18.432-2.56-22.016-7.68-3.584-5.12-5.632-12.288-5.632-21.504s2.048-15.872 6.656-20.48c4.096-4.096 11.264-6.656 21.504-6.656h49.664v-63.488c0-9.728 2.048-16.896 6.656-21.504 4.608-4.096 10.752-6.656 19.456-6.656 8.704 0 15.872 2.048 21.504 5.632 5.12 3.584 8.192 11.264 8.192 22.016v63.488h36.864c10.752 0 18.432 2.048 22.016 6.656 3.584 4.096 5.632 11.264 5.632 20.48 0 9.216-1.536 16.384-5.12 21.504s-10.752 7.68-22.528 7.68h-36.864v59.392h47.616c10.752 0 17.92 2.048 21.504 6.144 3.584 4.096 5.632 11.264 5.632 20.48 0 9.216-1.536 16.384-5.12 21.504s-10.752 7.68-22.016 7.68h-48.64v0.512c12.288 20.992 24.576 42.496 36.352 64 9.216 16.384 17.408 32.768 25.6 49.664 4.608 9.728 5.632 17.92 4.096 25.088-2.048 7.168-6.656 13.312-13.312 17.408-10.752 6.656-18.944 8.192-25.088 4.608-6.144-3.072-11.776-11.776-17.92-25.6-3.584-8.704-7.68-17.408-12.288-26.112-4.096-7.68-8.192-15.872-12.288-24.064-6.656 23.552-15.36 46.08-26.624 67.584-11.264 22.016-25.6 41.984-42.496 59.904z m437.248-81.92c-0.512 20.48-1.536 36.864-3.584 49.152-2.048 12.288-6.144 21.504-12.288 27.648s-15.36 10.24-26.624 12.288c-11.776 2.048-27.648 3.072-47.616 3.072-13.312 0-24.576-1.024-33.28-3.584-8.704-2.048-15.872-6.144-20.48-11.264-5.12-5.12-8.704-11.776-10.752-19.968-2.048-8.192-3.072-18.432-3.072-30.72v-65.024c-11.264 28.16-28.16 54.272-48.64 76.8-20.992 22.528-44.544 41.984-70.656 58.368-8.704 5.632-17.408 6.656-25.6 4.096s-13.312-7.68-16.384-14.336c-4.096-10.752-4.096-18.944 0.512-25.6 4.096-6.144 10.24-11.776 17.92-15.872 22.528-14.336 41.472-28.672 56.832-44.544 14.848-15.36 27.136-33.28 36.352-52.736 9.728-20.48 16.384-42.496 19.456-65.024 3.584-24.064 5.632-51.2 5.632-81.92V338.432c0-11.776 2.048-19.968 6.144-24.576s10.752-7.168 20.48-7.168c10.24 0 17.408 2.56 21.504 7.168 4.096 4.608 6.144 12.8 6.144 24.576l-2.56 128c10.24 0.512 17.408 2.56 21.504 7.168 4.096 4.608 6.144 12.288 6.144 24.064v125.44c0 3.584 1.536 6.656 4.096 8.704 2.56 2.048 7.68 3.072 15.36 3.072s13.312-0.512 17.92-2.048c3.584-1.024 7.168-3.584 9.216-6.656 2.048-3.584 3.072-7.68 3.072-11.776 0.512-4.608 0.512-10.24 0.512-16.896 0-10.752 2.048-19.968 6.144-26.112 4.096-6.656 11.264-9.728 21.504-9.728 10.752 0 17.92 3.072 22.016 8.704 2.048 6.656 3.584 15.872 3.072 29.184z m-31.232-72.704c0 11.776-2.56 19.456-7.168 23.04-4.608 3.584-11.264 5.632-18.944 5.632-8.704 0-15.872-2.048-20.48-5.632-4.608-3.584-7.168-11.264-7.168-23.04v-235.008c0-3.072-0.512-5.12-1.024-6.144-0.512-1.024-2.56-1.536-5.632-1.536h-120.832c-2.56 0-4.608 0.512-5.12 1.536-0.512 2.048-1.024 3.584-1.024 5.632V527.872c0 11.776-2.048 19.456-7.168 22.528-4.608 3.584-11.264 5.12-19.968 5.12-8.192 0-14.848-1.536-19.968-5.12s-7.68-10.752-7.68-22.528v-240.64c0-10.752 0.512-19.968 1.536-27.648 0.512-6.656 2.56-12.8 6.144-17.92 3.584-4.608 8.704-8.192 14.336-9.728 6.144-2.048 14.336-3.072 25.088-3.072h147.456c9.216 0 16.896 1.024 23.04 3.072 6.144 2.048 10.752 5.12 14.336 9.728 3.584 4.608 5.632 10.752 7.168 18.432 1.536 7.68 2.048 16.896 2.048 28.16l1.024 238.592z" fill="#FFFFFF" p-id="12290"></path></svg>