<?xml version="1.0" standalone="no"?><!DOCTYPE svg PUBLIC "-//W3C//DTD SVG 1.1//EN" "http://www.w3.org/Graphics/SVG/1.1/DTD/svg11.dtd"><svg t="1592901691458" class="icon" viewBox="0 0 1024 1024" version="1.1" xmlns="http://www.w3.org/2000/svg" p-id="5065" xmlns:xlink="http://www.w3.org/1999/xlink" width="200" height="200"><defs><style type="text/css"></style></defs><path d="M614.8096 967.168l-449.65888-0.12288C85.36064 967.0656 20.48 898.06848 20.48 813.38368v-57.97888c0-71.94624 26.19392-139.93984 73.74848-191.44704 48.2304-52.18304 112.3328-80.95744 180.51072-80.95744h49.41824c12.82048 0 25.1904 5.38624 33.87392 14.82752l80.22016 86.99904 80.75264-87.10144a46.30528 46.30528 0 0 1 33.77152-14.72512h49.19296c7.02464 0 14.1312 0.32768 21.05344 0.88064a238.96064 238.96064 0 0 1 81.3056 22.17984c1.3312 0.67584 2.51904 1.2288 3.85024 1.88416a35.26656 35.26656 0 0 1 15.89248 47.104 35.1232 35.1232 0 0 1-47.02208 15.93344l-2.74432-1.31072a173.64992 173.64992 0 0 0-24.10496-9.33888 193.1264 193.1264 0 0 0-20.60288-4.83328 170.51648 170.51648 0 0 0-27.72992-2.31424H563.4048l-91.29984 98.42688a46.30528 46.30528 0 0 1-33.75104 14.70464h-0.1024a46.24384 46.24384 0 0 1-33.87392-14.82752l-90.7264-98.304h-39.03488c-101.5808 0-184.1152 90.624-184.1152 202.09664v57.99936c0 46.01856 33.44384 83.3536 74.5472 83.3536l449.6384 0.12288c19.39456 0 35.06176 15.70816 35.06176 35.14368a35.0208 35.0208 0 0 1-34.95936 35.26656zM440.32 20.48c120.44288 0 218.112 97.87392 218.112 218.58304S560.7424 457.6256 440.32 457.6256c-120.4224 0-218.07104-97.85344-218.07104-218.56256C222.24896 118.35392 319.87712 20.48 440.32 20.48z m316.29312 489.43104c135.5776 0 245.59616 110.1824 245.59616 246.14912 0 135.9872-109.91616 246.14912-245.59616 246.14912-135.68 0-245.59616-110.1824-245.59616-246.1696 0-135.96672 109.91616-246.12864 245.59616-246.12864z m-36.16768 126.8736l-39.1168-12.30848c-13.7216 39.424-37.2736 78.848-61.82912 103.69024 6.92224 10.32192 17.98144 33.3824 21.7088 43.70432 4.05504-4.28032 8.33536-9.1136 12.288-14.27456v137.6256h40.7552v-200.45824c9.97376-19.10784 19.06688-38.87104 26.19392-57.97888z m69.81632 191.09888l-38.8096-12.288c-11.38688 19.6608-31.66208 39.97696-52.16256 52.49024 9.09312 5.7344 24.7808 18.57536 32.21504 26.03008 20.60288-15.70816 44.17536-41.0624 58.75712-66.23232z m103.44448-61.72672H856.8832v-49.41824h34.73408V677.0688H856.8832v-51.73248h-40.42752v51.73248h-33.11616v-51.07712h-40.42752v51.07712h-28.48768v39.64928h28.4672v49.41824h-35.26656v40.5504h186.08128v-40.5504z m-110.24384 0v-49.41824h33.09568v49.41824h-33.09568z m62.3616 48.88576l-32.99328 18.2272c17.1008 18.57536 36.72064 44.60544 45.2608 61.39904l34.73408-21.95456c-9.97376-16.26112-29.04064-39.99744-47.0016-57.67168z" fill="#FFFFFF" p-id="5066"></path></svg>