<?xml version="1.0" standalone="no"?><!DOCTYPE svg PUBLIC "-//W3C//DTD SVG 1.1//EN" "http://www.w3.org/Graphics/SVG/1.1/DTD/svg11.dtd"><svg t="1592902645981" class="icon" viewBox="0 0 1463 1024" version="1.1" xmlns="http://www.w3.org/2000/svg" p-id="20885" xmlns:xlink="http://www.w3.org/1999/xlink" width="285.7421875" height="200"><defs><style type="text/css"></style></defs><path d="M1165.034601 0H287.141655a73.474912 73.474912 0 0 0-73.051912 73.051912v877.892946A73.051912 73.051912 0 0 0 287.141655 1023.99877h877.892946a72.629913 72.629913 0 0 0 73.051912-73.052912V73.051912A73.051912 73.051912 0 0 0 1165.034601 0zM287.141655 942.077868s59.961928-364.416562 179.463785-364.416562S571.749313 679.427184 661.692205 679.427184s126.679848-313.743623 247.448703-313.743623 255.893693 576.394308 255.893693 576.394307z" fill="#FFFFFF" p-id="20886"></path><path d="M146.104825 219.579736H72.629913A73.051912 73.051912 0 0 0 0 292.209649v439.579472a73.051912 73.051912 0 0 0 72.629913 72.629913h73.474912z m1170.523594 0h73.896911a73.051912 73.051912 0 0 1 72.629912 72.629913v439.579472a73.051912 73.051912 0 0 1-72.629912 72.629913h-73.896911z m-841.15599 0a109.789868 109.789868 0 1 1-109.789868 109.788868 109.366869 109.366869 0 0 1 109.789868-109.789868z" fill="#FFFFFF" p-id="20887"></path><path d="M475.472429 459.849448a130.902843 130.902843 0 1 1 130.902843-130.480844 130.902843 130.902843 0 0 1-130.902843 130.479844z m0-219.157737a88.675893 88.675893 0 1 0 88.675893 88.676893 88.675893 88.675893 0 0 0-88.675893-88.676893z" fill="#FFFFFF" p-id="20888"></path></svg>