<?xml version="1.0" standalone="no"?><!DOCTYPE svg PUBLIC "-//W3C//DTD SVG 1.1//EN" "http://www.w3.org/Graphics/SVG/1.1/DTD/svg11.dtd"><svg t="1592902679252" class="icon" viewBox="0 0 1024 1024" version="1.1" xmlns="http://www.w3.org/2000/svg" p-id="21757" xmlns:xlink="http://www.w3.org/1999/xlink" width="200" height="200"><defs><style type="text/css"></style></defs><path d="M978.742 187.385l-44.588 44.286L785.67 84.1l44.588-44.224c16.363-16.302 42.156-17.156 57.485-1.886l92.825 92.218c15.39 15.267 14.537 40.879-1.826 57.177z m-393.81 391.382L436.447 431.194l326.654-324.586L911.588 254.18 584.931 578.767z m-20.682 20.56L356.396 658.33l59.37-206.578L564.25 599.327z m-346.062-448.8c-51.34 0-92.886 41.545-92.886 92.825V800.55c0 51.267 41.56 92.828 92.827 92.828h557.319c51.268 0 92.83-41.56 92.83-92.83V429.065l92.884-92.83V831.51c0 85.467-69.285 154.75-154.75 154.75H187.166c-85.466 0-154.75-69.284-154.75-154.75V212.39c0-85.467 69.285-154.75 154.75-154.75h495.398l-92.889 92.889H218.188v-0.001z" fill="#FFFFFF" p-id="21758"></path></svg>