<?xml version="1.0" standalone="no"?><!DOCTYPE svg PUBLIC "-//W3C//DTD SVG 1.1//EN" "http://www.w3.org/Graphics/SVG/1.1/DTD/svg11.dtd"><svg t="1592903100736" class="icon" viewBox="0 0 1024 1024" version="1.1" xmlns="http://www.w3.org/2000/svg" p-id="53942" xmlns:xlink="http://www.w3.org/1999/xlink" width="200" height="200"><defs><style type="text/css"></style></defs><path d="M614.8096 51.2H200.64256A149.44256 149.44256 0 0 0 51.2 200.63232v622.72512A149.43232 149.43232 0 0 0 200.64256 972.8h622.72512C905.90208 972.8 972.8 905.89184 972.8 823.35744V404.0704a51.2 51.2 0 0 0-102.4 0v419.28704A47.03232 47.03232 0 0 1 823.36768 870.4H200.64256A47.04256 47.04256 0 0 1 153.6 823.35744V200.63232A47.0016 47.0016 0 0 1 200.64256 153.6H614.8096a51.2 51.2 0 0 0 0-102.4z" fill="#ffffff" p-id="53943"></path><path d="M384.36864 712.04864l532.48-532.48a51.2 51.2 0 1 0-72.41728-72.41728l-532.48 532.48a51.2 51.2 0 1 0 72.41728 72.41728z" fill="#ffffff" p-id="53944"></path></svg>