<?xml version="1.0" standalone="no"?><!DOCTYPE svg PUBLIC "-//W3C//DTD SVG 1.1//EN" "http://www.w3.org/Graphics/SVG/1.1/DTD/svg11.dtd"><svg t="1592902602198" class="icon" viewBox="0 0 1024 1024" version="1.1" xmlns="http://www.w3.org/2000/svg" p-id="19159" xmlns:xlink="http://www.w3.org/1999/xlink" width="200" height="200"><defs><style type="text/css"></style></defs><path d="M789.197 349.809L597.472 504.876l-202.8-137.625c-10.021-6.8-23.39-5.887-32.39 2.218l-161.985 145.8c-10.807 9.726-11.682 26.368-1.955 37.175 9.726 10.804 26.37 11.68 37.175 1.954l146.657-132.004 201.892 137.007a26.286 26.286 0 0 0 14.778 4.541 26.296 26.296 0 0 0 16.557-5.857l206.903-167.343c11.303-9.142 13.056-25.715 3.913-37.019-9.142-11.303-25.715-13.058-37.02-3.914z" fill="#ffffff" p-id="19160"></path><path d="M899.832 139.56h-361.68v-39.132c0-14.757-12.078-27.191-26.832-26.91-14.303 0.27-25.815 11.95-25.815 26.318v39.724h-361.68c-32.967 0-59.692 26.725-59.692 59.692v491.562c0 32.967 26.725 59.693 59.692 59.693h361.682v30.017L322.039 904.393c-11.588 8.78-13.863 25.29-5.083 36.878 8.782 11.585 25.29 13.863 36.877 5.082l131.673-99.778s8.552-6.27 16.011-11.432a17.847 17.847 0 0 1 20.411 0.053l16.225 11.378 131.672 99.778a26.205 26.205 0 0 0 15.878 5.344c7.957 0 15.821-3.595 21-10.425 8.78-11.587 6.505-28.098-5.083-36.878L538.153 780.522v-30.017h361.68c32.968 0 59.694-26.726 59.694-59.693V199.25c-0.001-32.967-26.727-59.691-59.695-59.691z m7.047 551.252a7.053 7.053 0 0 1-7.047 7.046H123.825a7.054 7.054 0 0 1-7.046-7.046V199.25a7.054 7.054 0 0 1 7.046-7.046h776.008a7.054 7.054 0 0 1 7.047 7.046v491.56z" fill="#ffffff" p-id="19161"></path></svg>