<?xml version="1.0" standalone="no"?><!DOCTYPE svg PUBLIC "-//W3C//DTD SVG 1.1//EN" "http://www.w3.org/Graphics/SVG/1.1/DTD/svg11.dtd"><svg t="1591935167498" class="icon" viewBox="0 0 1024 1024" version="1.1" xmlns="http://www.w3.org/2000/svg" p-id="3285" xmlns:xlink="http://www.w3.org/1999/xlink" width="200" height="200"><defs><style type="text/css"></style></defs><path d="M346.21007 469.675032l324.930417 0L671.140487 347.826893c0-44.844348-15.867386-83.132372-47.599088-114.863051-31.730679-31.731702-70.01768-47.599088-114.868167-47.599088-44.844348 0-83.137489 15.867386-114.868167 47.599088-31.731702 31.730679-47.594995 70.01768-47.594995 114.863051L346.21007 469.675032 346.21007 469.675032zM874.218672 530.605753l0 365.543394c0 16.921391-5.922896 31.308053-17.766642 43.152822-11.849886 11.845793-26.232454 17.771759-43.157939 17.771759L204.052372 957.073728c-16.926508 0-31.308053-5.92699-43.152822-17.771759-11.849886-11.843746-17.771759-26.231431-17.771759-43.152822L143.127791 530.605753c0-16.926508 5.922896-31.314193 17.771759-43.157939 11.843746-11.844769 26.225291-17.771759 43.152822-17.771759l20.309558 0L224.361931 347.826893c0-77.843926 27.92398-144.691403 83.766822-200.538339 55.846936-55.848982 122.69953-83.771939 200.544479-83.771939 77.850066 0 144.69652 27.92398 200.544479 83.771939 55.848982 55.846936 83.771939 122.694413 83.771939 200.538339l0 121.849162 20.304442 0c16.925485 0 31.308053 5.92699 43.157939 17.771759C868.295775 499.29156 874.218672 513.678222 874.218672 530.605753L874.218672 530.605753zM874.218672 530.605753" p-id="3286" fill="#889aa4"></path></svg>