<?xml version="1.0" standalone="no"?><!DOCTYPE svg PUBLIC "-//W3C//DTD SVG 1.1//EN" "http://www.w3.org/Graphics/SVG/1.1/DTD/svg11.dtd"><svg t="1592983324549" class="icon" viewBox="0 0 1029 1024" version="1.1" xmlns="http://www.w3.org/2000/svg" p-id="70078" xmlns:xlink="http://www.w3.org/1999/xlink" width="200.9765625" height="200"><defs><style type="text/css"></style></defs><path d="M864.757981 631.343632l165.217989-59.40817-149.399245-92.451768 126.901476-121.628562-174.006179-23.903879L899.910745 171.193958l-168.733265 48.862341-5.624442-175.412289L591.269482 158.187436 514.987985 0l-76.281497 158.187436-134.283556-113.543426-5.624442 175.763817-168.733265-49.213869L196.503948 333.951253l-174.006179 23.903879 126.901476 121.628562L0 571.935462l165.217988 59.40817-98.779265 145.180913 175.060762-13.006522-30.934432 172.951596 154.672159-82.960522 41.831789 170.490903 107.567456-138.853416 107.567456 138.853416 41.831789-170.490903 154.672159 82.960522-30.934432-172.951596 175.060763 13.006522-98.076211-145.180913zM264.700309 293.174047h134.986612V250.287676h43.940954v42.886371h156.781325V250.287676h43.940954v42.886371h134.986612v39.371095h-134.986612v43.2379h-43.940954V332.193615h-156.781325v42.886371h-43.940954V332.193615H264.700309V293.174047z m138.501888 250.639204v252.045314H362.073464v-210.213526c-24.958462 22.497769-52.377618 43.237899-81.905939 63.626502l-26.7161-34.449708c70.657055-46.401648 125.495366-99.833848 164.163405-159.945074H272.433917v-39.371095h167.678682c7.030553-15.467216 13.709578-30.231377 19.685547-44.995537l41.480261 7.030553c-4.921387 13.006522-10.194301 25.661517-14.764161 37.964984h290.010299v39.371095h-309.695846c-17.576382 31.285959-39.019567 61.165808-63.626502 88.936492z m379.298318 121.277034h-130.76828V745.238586c0 31.989015-16.170271 48.159286-47.456231 48.159286h-69.602472l-12.654994-41.480261c27.419156 1.757638 49.213869 2.812221 64.681084 2.812221 14.412633 0 22.146241-7.030553 22.146241-21.443186v-68.196361h-164.163405v-40.425678h164.163405v-36.910402c21.443186-13.006522 45.698593-29.176794 74.172331-48.159286h-195.449365v-39.371095h256.263646v30.934432c-27.419156 21.443186-58.353587 44.64401-92.10024 68.196361v24.958462h130.76828v40.777206z" fill="#FFFFFF" p-id="70079"></path></svg>